<svg xmlns="http://www.w3.org/2000/svg" viewBox="0 0 512 512">
  <defs>
    <linearGradient id="g" x1="0" y1="0" x2="0" y2="1">
      <stop offset="0" stop-color="#10b981"/>
      <stop offset="1" stop-color="#047857"/>
    </linearGradient>
  </defs>
  <rect width="512" height="512" rx="112" fill="url(#g)"/>
  <path d="M96 340V216c0-18 14-32 32-32h172c12 0 23 5 31 14l62 70c6 7 9 16 9 25v47c0 9-7 16-16 16H112c-9 0-16-7-16-16z" fill="#fff"/>
  <rect x="126" y="214" width="112" height="62" rx="12" fill="#065f46"/>
  <path d="M292 214h20c6 0 12 3 16 8l36 41c5 6 1 13-7 13h-65c-6 0-10-4-10-10v-42c0-6 4-10 10-10z" fill="#065f46"/>
  <rect x="126" y="296" width="238" height="14" rx="7" fill="#a7f3d0"/>
  <circle cx="172" cy="356" r="38" fill="#064e3b"/><circle cx="172" cy="356" r="15" fill="#fff"/>
  <circle cx="330" cy="356" r="38" fill="#064e3b"/><circle cx="330" cy="356" r="15" fill="#fff"/>
</svg>
